<svg width="238" height="238" viewBox="0 0 238 238" fill="none" xmlns="http://www.w3.org/2000/svg">
<circle cx="118" cy="118" r="114" fill="#D9D9D9"/>
<path d="M118.75 0C53.2 0 0 53.2 0 118.75C0 184.3 53.2 237.5 118.75 237.5C184.3 237.5 237.5 184.3 237.5 118.75C237.5 53.2 184.3 0 118.75 0ZM77.5437 136.206C80.9875 139.65 80.9875 145.35 77.5437 148.794C75.7625 150.575 73.5062 151.406 71.25 151.406C68.9937 151.406 66.7375 150.575 64.9562 148.794L41.2062 125.044C37.7625 121.6 37.7625 115.9 41.2062 112.456L64.9562 88.7062C68.4 85.2625 74.1 85.2625 77.5437 88.7062C80.9875 92.15 80.9875 97.85 77.5437 101.294L60.0875 118.75L77.5437 136.206ZM138.819 94.525L115.069 149.981C113.644 153.306 110.319 155.325 106.875 155.325C105.687 155.325 104.5 155.087 103.431 154.612C98.9187 152.712 96.7812 147.487 98.8 142.856L122.55 87.4C124.45 82.8875 129.675 80.75 134.187 82.7687C138.7 84.7875 140.719 90.0125 138.819 94.525ZM196.294 125.044L172.544 148.794C170.762 150.575 168.506 151.406 166.25 151.406C163.994 151.406 161.737 150.575 159.956 148.794C156.512 145.35 156.512 139.65 159.956 136.206L177.412 118.75L159.956 101.294C156.512 97.85 156.512 92.15 159.956 88.7062C163.4 85.2625 169.1 85.2625 172.544 88.7062L196.294 112.456C199.737 115.9 199.737 121.6 196.294 125.044Z" fill="#292D32"/>
</svg>
